<svg width="523" height="135" xmlns="http://www.w3.org/2000/svg" xmlns:xlink="http://www.w3.org/1999/xlink" xml:space="preserve" overflow="hidden"><defs><clipPath id="clip0"><rect x="774" y="240" width="523" height="135"/></clipPath></defs><g clip-path="url(#clip0)" transform="translate(-774 -240)"><path d="M1229.91 240 1246.68 290.625 1297 290.625 1258.42 324.375 1273.52 375 1229.91 344.625 1186.3 375 1193.56 350.647 784.471 350.647 784.471 350.647 774 350.647 784.461 341.445 784.461 341.436 1196.31 341.436 1196.33 341.355 1205.81 341.355 1205.99 341.337 1202.75 352.189 1224.64 336.949 1229.91 333.275 1235.17 336.949 1257.06 352.189 1249.55 327.052 1247.85 321.293 1252.36 317.35 1272.26 299.935 1240.01 299.935 1237.91 293.572 1229.91 269.439 1224.72 285.101 1214.97 285.101Z" fill="#FFFFFF" fill-rule="evenodd"/><path d="M1156.16 300.628 1153.77 307.678 1168.7 307.678 1171.09 300.628ZM1115.5 300.628 1107.46 324.364 1122.72 324.364 1130.76 300.628ZM1002.01 300.628 993.964 324.364 1009.23 324.364 1017.27 300.628ZM1190.41 291 1225 291 1221.74 300.628 1196.81 300.628 1194.42 307.678 1211.04 307.678 1207.77 317.314 1191.16 317.314 1188.77 324.364 1213.69 324.364 1210.43 334 1175.84 334ZM1149.76 291 1184.35 291 1178.26 308.971 1169.95 308.971 1167.56 316.021 1175.87 316.021 1169.77 334 1160.11 334 1165.76 317.314 1150.5 317.314 1144.85 334 1135.18 334ZM1109.1 291 1143.69 291 1129.12 334 1094.53 334ZM1076.92 291 1103.2 291 1099.93 300.628 1091.63 300.628 1080.32 334 1070.65 334 1081.96 300.628 1073.65 300.628ZM1036.26 291 1070.85 291 1067.59 300.628 1042.66 300.628 1040.27 307.678 1065.2 307.678 1056.28 334 1021.69 334 1024.96 324.364 1049.88 324.364 1052.27 317.314 1027.34 317.314ZM995.608 291 1030.2 291 1015.62 334 981.034 334ZM954.953 291 989.543 291 974.97 334 965.306 334 976.617 300.628 961.354 300.628 950.044 334 940.38 334ZM914.299 291 923.963 291 918.31 307.678 933.573 307.678 939.225 291 948.889 291 934.316 334 924.652 334 930.308 317.314 915.045 317.314 909.39 334 899.726 334ZM872.797 291 907.388 291 904.125 300.628 879.198 300.628 871.154 324.364 896.081 324.364 892.814 334 858.224 334ZM831.296 291 865.886 291 862.623 300.628 837.697 300.628 835.308 307.678 851.925 307.678 848.66 317.314 832.042 317.314 829.653 324.364 854.579 324.364 851.313 334 816.723 334ZM798.264 291 824.546 291 821.283 300.628 812.974 300.628 801.664 334 792 334 803.31 300.628 795.001 300.628Z" fill="#FFFFFF" fill-rule="evenodd"/></g></svg>